PathFileType	4	(X/Y/Z)	..\data\2014001\dynamic\2014001_C4_05.trc
DataRate	CameraRate	NumFrames	NumMarkers	Units	OrigDataRate	OrigDataStartFrame	OrigNumFrames
100.000000	100.000000	4	52	mm	100.000000	117	156
Frame#	Time	L_IAS			L_IPS			R_IPS			R_IAS			L_FTC			L_FLE			L_FME			L_FAX			L_TTC			L_FAL			L_TAM			L_FCC			L_FM1			L_FM2			L_FM5			R_FTC			R_FLE			R_FME			R_FAX			R_TTC			R_FAL			R_TAM			R_FCC			R_FM1			R_FM2			R_FM5			CV7			TV10			SXS			SJN			L_SIA			L_SRS			L_SAA			L_SAE			L_HLE			L_HME			L_UOA			L_RSP			L_UHE			L_HM2			L_HM5			R_SIA			R_SRS			R_SAA			R_SAE			R_HLE			R_HME			R_UOA			R_RSP			R_UHE			R_HM2			R_HM5			
		X1	Y1	Z1	X2	Y2	Z2	X3	Y3	Z3	X4	Y4	Z4	X5	Y5	Z5	X6	Y6	Z6	X7	Y7	Z7	X8	Y8	Z8	X9	Y9	Z9	X10	Y10	Z10	X11	Y11	Z11	X12	Y12	Z12	X13	Y13	Z13	X14	Y14	Z14	X15	Y15	Z15	X16	Y16	Z16	X17	Y17	Z17	X18	Y18	Z18	X19	Y19	Z19	X20	Y20	Z20	X21	Y21	Z21	X22	Y22	Z22	X23	Y23	Z23	X24	Y24	Z24	X25	Y25	Z25	X26	Y26	Z26	X27	Y27	Z27	X28	Y28	Z28	X29	Y29	Z29	X30	Y30	Z30	X31	Y31	Z31	X32	Y32	Z32	X33	Y33	Z33	X34	Y34	Z34	X35	Y35	Z35	X36	Y36	Z36	X37	Y37	Z37	X38	Y38	Z38	X39	Y39	Z39	X40	Y40	Z40	X41	Y41	Z41	X42	Y42	Z42	X43	Y43	Z43	X44	Y44	Z44	X45	Y45	Z45	X46	Y46	Z46	X47	Y47	Z47	X48	Y48	Z48	X49	Y49	Z49	X50	Y50	Z50	X51	Y51	Z51	X52	Y52	Z52	

118	1.17	476.6367187500001	847.686950683594	122.9500732421876	303.2537536621094	891.3565673828127	206.126937866211	309.2981872558594	887.6306152343752	297.621307373047	495.4043884277344	868.870056152344	359.7512207031251	391.2408752441407	763.0563354492189	68.2712020874024	353.1726684570313	419.0760192871095	73.54667663574224	390.365447998047	383.7851562500001	184.9118194580079	302.5076293945313	385.369110107422	67.11551666259771	335.1856994628907	318.3841247558594	108.0109100341798	41.09141159057616	205.6243896484376	114.4253158569336	73.07374572753905	184.7938079833985	197.1577606201172	-2.038790464401266	224.379379272461	168.6313018798828	54.42180252075195	62.93379592895509	189.3140563964844	59.40980529785156	60.93387985229494	129.5578918457032	27.06485366821289	94.14282226562501	90.97681427001955	418.9600524902344	768.9261474609377	426.7445678710939	544.3101196289064	435.2699279785157	377.340545654297	549.1721191406251	431.0240478515626	257.9331359863282	533.3175048828126	369.1203613281251	381.1395874023439	592.9506835937501	368.6002807617188	325.1598205566407	490.6134033203126	60.36726760864259	332.9509277343751	524.7667236328126	75.29434204101564	247.9842681884767	442.8782653808594	21.66495895385743	279.4566345214845	632.6784057617189	15.29208087921143	258.8276672363282	638.7412719726564	27.73002243041993	323.7296752929689	579.3769531250001	18.0130729675293	370.3778381347657	325.1220397949219	1354.608520507813	255.8288879394532	270.5438537597656	1120.240234375	249.0525817871095	504.9508361816407	1135.460327148438	247.3677062988282	455.8375854492188	1296.399536132813	254.3880767822267	269.2397460937501	1161.003662109375	153.5218048095704	283.4905090332032	1293.446533203125	165.5991821289063	360.2845153808594	1293.591552734375	57.61494827270513	399.101287841797	1307.040283203125	75.75159454345709	403.3253784179689	1025.345703125	-15.14832496643062	381.4364929199219	983.6023559570315	58.06390380859381	377.6897277832032	980.404235839844	6.862621784210253	570.2107543945314	845.1119384765627	49.63830566406259	540.3272094726564	822.3270263671877	-19.79555130004876	636.2647705078126	788.5401000976565	49.68896865844736	571.8924560546876	750.6928710937501	-17.30463790893548	261.3690185546875	1158.685791015625	359.579803466797	283.6050720214844	1285.4375	341.4089660644532	359.4345703125	1281.331298828125	446.1891174316408	409.7975769042969	1287.024291992188	437.1792907714845	342.3306884765625	987.5263671875002	497.5964355468752	315.6046752929688	976.6037597656252	418.7138977050783	310.3080139160156	971.8521118164065	465.2899169921877	400.5244445800782	765.4996337890626	478.508026123047	346.1255493164062	775.7251586914065	537.9133300781251	416.8828430175782	675.2256469726564	498.1434936523439	326.2984008789062	696.8285522460939	540.5616455078126	
119	1.18	489.4757385253907	850.4563598632815	123.5685501098634	316.7621765136719	893.2526855468752	208.2098846435548	323.1730346679688	890.036315917969	299.4575805664064	509.4145202636719	870.7989501953127	360.6413879394532	406.0835571289064	764.5426635742189	70.09567260742193	381.1210937500001	419.1759643554689	74.65699768066412	417.4208068847657	385.1355285644532	187.0652008056641	331.3336181640626	385.3013916015626	67.83015441894537	363.5999450683594	318.8683166503907	110.0181045532227	67.66846466064453	209.4003295898438	115.1397705078125	98.60018920898438	188.6470031738282	198.3661499023438	23.55016326904295	227.7188415527344	168.794677734375	82.16464233398436	66.46424102783205	188.7283782958985	87.22457122802734	65.00654602050783	129.3670959472657	55.06628799438477	98.77747344970706	90.8407669067383	432.5379028320313	771.0120849609377	427.8826293945314	549.7967529296876	434.5372009277345	378.0858154296876	554.3237304687501	430.2468872070314	258.5552368164064	537.3671264648439	368.4489746093751	381.7366333007814	597.1908569335939	367.1819152832032	325.965301513672	490.5946350097657	60.51529693603517	332.9124450683595	524.8574829101564	75.48078918457033	248.0108337402345	442.7975769042969	21.93853759765625	279.6610107421876	632.4759521484376	15.82009506225586	258.8269348144532	638.6434326171876	28.40957641601563	323.749481201172	579.3601074218751	18.43579864501953	370.496307373047	339.9667663574219	1357.062255859375	257.1633605957032	284.42236328125	1122.8994140625	251.1866455078126	518.7578125000001	1137.572265625	247.6421356201173	470.1220703125001	1298.731811523438	254.9183959960939	282.5818786621094	1163.729370117188	155.5793609619141	297.2566223144532	1296.273803710938	167.4079895019532	373.3182067871094	1295.974243164063	58.89004135131842	412.3805236816407	1309.209228515625	76.67760467529304	413.5024414062501	1027.026123046875	-12.9847965240478	391.0790405273439	986.1630859375002	60.97926330566413	387.5296325683595	982.9655761718752	9.496542930603077	575.4478759765626	841.4523925781252	48.69086837768563	543.5631103515626	820.0610961914065	-20.41729736328119	639.3327026367189	782.4747314453127	47.48068237304696	572.5651855468751	747.5089721679689	-18.67034339904778	276.5246887207031	1161.667236328125	362.4007873535157	298.7348327636719	1288.3623046875	343.609588623047	375.9205322265625	1284.106567382813	447.6380920410158	426.1589965820313	1289.630615234375	437.8960266113283	361.5989685058594	989.7373046875002	499.7947387695314	333.431396484375	978.4277343750002	421.6182250976564	328.9572143554688	973.6558227539065	468.1995544433595	422.0109252929688	768.4837036132815	479.9335021972658	368.4039306640625	777.9937744140627	540.2974243164064	439.9043273925782	678.4851074218751	499.4757080078127	349.7204895019531	698.8855590820314	543.3502807617189	
120	1.19	502.168426513672	853.489440917969	124.0943145751954	330.1713867187501	895.3546142578127	210.2738189697266	336.8646545410156	892.5802001953127	301.2631835937501	523.1776733398439	872.749694824219	361.4116821289064	420.731658935547	766.4982910156251	71.89454650878913	408.9692993164064	419.9907226562501	75.81288909912116	444.348358154297	387.3169250488282	189.2882385253907	360.0957641601563	385.7396850585939	68.73551940917974	392.3533630371095	320.0481872558594	112.0462646484376	95.21219635009766	212.0534667968751	115.9368362426758	125.2744293212891	191.6146240234375	199.6086578369141	49.90539932250976	229.382064819336	168.9865112304688	112.5093994140625	69.20847320556642	188.1890563964844	117.7714996337891	68.54917144775392	129.1616363525391	85.32537841796875	102.2415237426758	90.70563507080081	445.7829589843751	773.059753417969	428.9166259765627	554.4871215820314	433.8702087402345	378.8877868652345	558.8074340820314	429.5126037597657	259.2760314941407	540.7068481445314	367.8317871093751	382.3976440429689	600.7352905273439	365.8666992187501	326.8575134277345	490.4710083007813	60.59860992431642	332.942596435547	524.8717651367189	75.66893005371095	248.1300048828126	442.6728515625001	22.20541763305664	279.8299865722657	632.2592773437501	16.37919425964356	258.9232482910157	638.4753417968751	28.97414588928223	323.8389892578126	579.3146362304689	18.65653800964356	370.5874023437501	354.6133117675781	1359.651977539063	258.436004638672	298.2196350097656	1125.635498046875	253.2125244140626	532.4174194335939	1139.805908203125	247.7959136962892	484.2186889648438	1301.170654296875	255.2942047119142	295.7651367187501	1166.586547851563	157.5956268310547	310.8435974121094	1299.2177734375	169.1359558105469	386.1570434570314	1298.512939453125	60.07006835937506	425.4645080566407	1311.53125	77.47335052490241	423.5816650390626	1028.910766601563	-10.89155673980708	400.5877075195314	988.9530029296877	63.837631225586	397.2776184082032	985.7569580078127	12.07667160034185	580.1978759765626	838.0148925781252	47.63293457031258	546.3170776367189	818.1580810546877	-21.11837577819818	641.6694946289064	776.5679321289065	45.18988800048837	572.5386962890626	744.7243652343751	-20.10048675537103	291.5546875	1164.833984375	365.1805419921876	313.7850952148438	1291.4013671875	345.7180786132814	392.3882446289063	1287.053344726563	448.9530334472658	442.4449768066407	1292.36181640625	438.429901123047	380.9255676269531	992.1610107421877	501.9791870117189	351.40771484375	980.3450927734377	424.5044555664064	347.7157897949219	975.5944824218752	471.0740661621095	443.8600769042969	771.7482910156252	481.315643310547	391.0186767578126	780.5118408203127	542.6272583007814	463.3961181640626	682.0806884765626	500.8060913085939	373.6015319824219	701.2005615234376	546.1185913085939	
121	1.2	514.8297119140626	856.7216796875002	124.625228881836	343.5315856933594	897.618835449219	212.2455444335938	350.3912353515625	895.2099609375002	302.9885253906251	536.6917724609376	874.7119140625002	362.1422729492189	435.2728881835939	768.8726806640627	73.65954589843757	436.5644836425782	421.5093994140626	76.98249816894538	471.0963439941407	390.2575683593751	191.4808349609376	388.6157226562501	386.6951293945314	69.80541992187506	421.2979431152345	321.9008789062501	113.9957656860352	123.6304168701172	213.4464721679688	116.8090972900391	153.0605773925781	193.5259399414063	200.8457794189454	77.00577545166016	229.3021392822266	169.2430114746094	145.1592254638672	71.03678131103517	187.7339019775391	150.7161102294922	71.38512420654298	128.9749603271485	117.5500640869141	104.4093856811524	90.6127624511719	458.6854858398438	775.0469360351565	429.8647460937502	558.5337524414064	433.3076171875001	379.7334594726564	562.7952270507814	428.8712768554689	260.0895080566407	543.4991455078126	367.3130798339844	383.1121215820314	603.7297363281251	364.6853942871094	327.8161621093751	490.2869262695313	60.64971160888673	333.0342407226564	524.8561401367189	75.85566711425783	248.3269348144532	442.5373535156251	22.49625396728516	279.955535888672	632.0532836914064	16.89139938354493	259.0835266113282	638.2841796875001	29.37082672119141	323.9797973632814	579.2499389648439	18.68585586547852	370.6663208007814	369.0418395996094	1362.325927734375	259.6480407714845	311.9653625488281	1128.389038085938	255.1168212890626	545.9657592773439	1142.147216796875	247.8574676513673	498.1333007812501	1303.688232421875	255.5304412841798	308.8093261718751	1169.515747070313	159.5662689208985	324.2556762695313	1302.206665039063	170.7865905761719	398.7986755371095	1301.157348632813	61.1634597778321	438.3428344726564	1313.967407226563	78.14118957519538	433.5397033691407	1030.968994140625	-8.879695892333933	409.9942626953126	991.9263305664065	66.61080169677741	406.9065551757814	988.7393188476565	14.59356594085699	584.4928588867189	834.8335571289065	46.47917175292977	548.6567382812501	816.6494140625002	-21.89203262329095	643.3143310546876	770.8774414062502	42.86087036132821	571.8957519531251	742.3851928710939	-21.58460044860833	306.4688110351562	1168.114135742188	367.8963317871095	328.7394104003906	1294.485961914063	347.7169799804689	408.7911987304688	1290.13330078125	450.1302185058595	458.6112976074219	1295.194091796875	438.7925720214845	400.2643127441407	994.781677246094	504.1496887207033	369.5199890136719	982.3442993164065	427.3500061035158	366.56005859375	977.648620605469	473.8941040039064	466.0397644042969	775.285339355469	482.6436462402345	413.9426269531251	783.2767333984377	544.8814697265626	487.3192138671876	686.0036621093751	502.1112670898439	397.9055480957032	703.7701416015626	548.8369750976564	
